{
	"asset":{
		"generator":"Khronos glTF Blender I/O v3.6.28",
		"version":"2.0"
	},
	"scene":0,
	"scenes":[
		{
			"name":"Scene",
			"nodes":[
				0,
				1,
				2,
				3,
				4
			]
		}
	],
	"nodes":[
		{
			"mesh":0,
			"name":"Quad Sphere",
			"scale":[
				3.144791603088379,
				3.144791603088379,
				3.144791603088379
			]
		},
		{
			"name":"RA control",
			"rotation":[
				0,
				0,
				-0.22138041257858276,
				0.9751875996589661
			],
			"translation":[
				-8.224054336547852,
				2.618910074234009,
				4.666458606719971
			]
		},
		{
			"name":"LV control",
			"translation":[
				-7.678199768066406,
				-1.045457124710083,
				-2.257493495941162
			]
		},
		{
			"name":"LA control",
			"translation":[
				-4.600478649139404,
				4.3671441078186035,
				1.0095305442810059
			]
		},
		{
			"name":"RV control",
			"rotation":[
				0.05646971985697746,
				0.6154949069023132,
				0.3095757067203522,
				0.7225925922393799
			],
			"translation":[
				-1.3340270519256592,
				-0.5929868817329407,
				1.5221028327941895
			]
		}
	],
	"animations":[
		{
			"channels":[
				{
					"sampler":0,
					"target":{
						"node":0,
						"path":"weights"
					}
				}
			],
			"name":"KeyAction",
			"samplers":[
				{
					"input":35,
					"interpolation":"LINEAR",
					"output":36
				}
			]
		}
	],
	"materials":[
		{
			"doubleSided":true,
			"name":"Material",
			"pbrMetallicRoughness":{
				"baseColorFactor":[
					1,
					0.01850022003054619,
					0.04518621414899826,
					1
				],
				"metallicFactor":0.30000001192092896
			}
		},
		{
			"doubleSided":true,
			"name":"LVent",
			"pbrMetallicRoughness":{
				"metallicFactor":0
			}
		},
		{
			"doubleSided":true,
			"name":"RVent",
			"pbrMetallicRoughness":{
				"metallicFactor":0
			}
		},
		{
			"doubleSided":true,
			"name":"LAtrium",
			"pbrMetallicRoughness":{
				"metallicFactor":0
			}
		},
		{
			"doubleSided":true,
			"name":"RAtrium",
			"pbrMetallicRoughness":{
				"metallicFactor":0
			}
		}
	],
	"meshes":[
		{
			"extras":{
				"targetNames":[
					"Systole",
					"Diastole"
				]
			},
			"name":"Quad Sphere",
			"primitives":[
				{
					"attributes":{
						"POSITION":0,
						"NORMAL":1
					},
					"indices":2,
					"material":0,
					"targets":[
						{
							"POSITION":3,
							"NORMAL":4
						},
						{
							"POSITION":5,
							"NORMAL":6
						}
					]
				},
				{
					"attributes":{
						"POSITION":7,
						"NORMAL":8
					},
					"indices":9,
					"material":1,
					"targets":[
						{
							"POSITION":10,
							"NORMAL":11
						},
						{
							"POSITION":12,
							"NORMAL":13
						}
					]
				},
				{
					"attributes":{
						"POSITION":14,
						"NORMAL":15
					},
					"indices":16,
					"material":2,
					"targets":[
						{
							"POSITION":17,
							"NORMAL":18
						},
						{
							"POSITION":19,
							"NORMAL":20
						}
					]
				},
				{
					"attributes":{
						"POSITION":21,
						"NORMAL":22
					},
					"indices":23,
					"material":3,
					"targets":[
						{
							"POSITION":24,
							"NORMAL":25
						},
						{
							"POSITION":26,
							"NORMAL":27
						}
					]
				},
				{
					"attributes":{
						"POSITION":28,
						"NORMAL":29
					},
					"indices":30,
					"material":4,
					"targets":[
						{
							"POSITION":31,
							"NORMAL":32
						},
						{
							"POSITION":33,
							"NORMAL":34
						}
					]
				}
			],
			"weights":[
				0,
				0
			]
		}
	],
	"accessors":[
		{
			"bufferView":0,
			"componentType":5126,
			"count":10436,
			"max":[
				1.2350555658340454,
				1.42842698097229,
				1.4266486167907715
			],
			"min":[
				-0.6391789317131042,
				-1.2445697784423828,
				-1.2963628768920898
			],
			"type":"VEC3"
		},
		{
			"bufferView":1,
			"componentType":5126,
			"count":10436,
			"type":"VEC3"
		},
		{
			"bufferView":2,
			"componentType":5123,
			"count":15654,
			"type":"SCALAR"
		},
		{
			"bufferView":3,
			"componentType":5126,
			"count":10436,
			"max":[
				0.14301058650016785,
				5.960464477539063e-08,
				0.1938793659210205
			],
			"min":[
				-0.12810838222503662,
				-5.960464477539063e-08,
				-0.1553124189376831
			],
			"type":"VEC3"
		},
		{
			"bufferView":4,
			"componentType":5126,
			"count":10436,
			"type":"VEC3"
		},
		{
			"bufferView":5,
			"componentType":5126,
			"count":10436,
			"max":[
				0.042916059494018555,
				5.960464477539063e-08,
				0.1656726598739624
			],
			"min":[
				-0.14656609296798706,
				-2.9802322387695312e-08,
				-0.13622546195983887
			],
			"type":"VEC3"
		},
		{
			"bufferView":6,
			"componentType":5126,
			"count":10436,
			"type":"VEC3"
		},
		{
			"bufferView":7,
			"componentType":5126,
			"count":20360,
			"max":[
				1.6228138208389282,
				1.0156749486923218,
				1.293017029762268
			],
			"min":[
				-0.6036697626113892,
				-1.2983349561691284,
				-1.105799674987793
			],
			"type":"VEC3"
		},
		{
			"bufferView":8,
			"componentType":5126,
			"count":20360,
			"type":"VEC3"
		},
		{
			"bufferView":9,
			"componentType":5123,
			"count":30540,
			"type":"SCALAR"
		},
		{
			"bufferView":10,
			"componentType":5126,
			"count":20360,
			"max":[
				0.13787391781806946,
				5.960464477539063e-08,
				0.19396662712097168
			],
			"min":[
				-0.18419981002807617,
				-5.960464477539063e-08,
				-0.1530362367630005
			],
			"type":"VEC3"
		},
		{
			"bufferView":11,
			"componentType":5126,
			"count":20360,
			"type":"VEC3"
		},
		{
			"bufferView":12,
			"componentType":5126,
			"count":20360,
			"max":[
				0.031238794326782227,
				5.960464477539063e-08,
				0.12468749284744263
			],
			"min":[
				-0.1468932032585144,
				-4.470348358154297e-08,
				-0.07041585445404053
			],
			"type":"VEC3"
		},
		{
			"bufferView":13,
			"componentType":5126,
			"count":20360,
			"type":"VEC3"
		},
		{
			"bufferView":14,
			"componentType":5126,
			"count":12824,
			"max":[
				0.7396769523620605,
				0.4335072636604309,
				1.4455739259719849
			],
			"min":[
				-1.1350884437561035,
				-1.2445697784423828,
				-0.45938897132873535
			],
			"type":"VEC3"
		},
		{
			"bufferView":15,
			"componentType":5126,
			"count":12824,
			"type":"VEC3"
		},
		{
			"bufferView":16,
			"componentType":5123,
			"count":19236,
			"type":"SCALAR"
		},
		{
			"bufferView":17,
			"componentType":5126,
			"count":12824,
			"max":[
				0.21474671363830566,
				2.9802322387695312e-08,
				0.10045957565307617
			],
			"min":[
				-0.056448936462402344,
				-2.9802322387695312e-08,
				-0.17510437965393066
			],
			"type":"VEC3"
		},
		{
			"bufferView":18,
			"componentType":5126,
			"count":12824,
			"type":"VEC3"
		},
		{
			"bufferView":19,
			"componentType":5126,
			"count":12824,
			"max":[
				0.116668701171875,
				2.9802322387695312e-08,
				0.06988313794136047
			],
			"min":[
				-0.07002729177474976,
				-2.9802322387695312e-08,
				-0.12993717193603516
			],
			"type":"VEC3"
		},
		{
			"bufferView":20,
			"componentType":5126,
			"count":12824,
			"type":"VEC3"
		},
		{
			"bufferView":21,
			"componentType":5126,
			"count":5056,
			"max":[
				1.0360499620437622,
				1.3931999206542969,
				0.7326304912567139
			],
			"min":[
				-0.18415682017803192,
				0.5478909611701965,
				-1.0220236778259277
			],
			"type":"VEC3"
		},
		{
			"bufferView":22,
			"componentType":5126,
			"count":5056,
			"type":"VEC3"
		},
		{
			"bufferView":23,
			"componentType":5123,
			"count":7584,
			"type":"SCALAR"
		},
		{
			"bufferView":24,
			"componentType":5126,
			"count":5056,
			"max":[
				0.0002180039882659912,
				5.960464477539063e-08,
				0.1539803147315979
			],
			"min":[
				-0.09932112693786621,
				-5.960464477539063e-08,
				-0.07197296619415283
			],
			"type":"VEC3"
		},
		{
			"bufferView":25,
			"componentType":5126,
			"count":5056,
			"type":"VEC3"
		},
		{
			"bufferView":26,
			"componentType":5126,
			"count":5056,
			"max":[
				0.0012318342924118042,
				0,
				0.14697641134262085
			],
			"min":[
				-0.1468932032585144,
				0,
				-0.06602698564529419
			],
			"type":"VEC3"
		},
		{
			"bufferView":27,
			"componentType":5126,
			"count":5056,
			"type":"VEC3"
		},
		{
			"bufferView":28,
			"componentType":5126,
			"count":7252,
			"max":[
				0.4358613193035126,
				1.3129067420959473,
				1.3109029531478882
			],
			"min":[
				-1.092881202697754,
				0.1422838270664215,
				-0.5343819260597229
			],
			"type":"VEC3"
		},
		{
			"bufferView":29,
			"componentType":5126,
			"count":7252,
			"type":"VEC3"
		},
		{
			"bufferView":30,
			"componentType":5123,
			"count":10878,
			"type":"SCALAR"
		},
		{
			"bufferView":31,
			"componentType":5126,
			"count":7252,
			"max":[
				0.20741963386535645,
				5.960464477539063e-08,
				0.0988110601902008
			],
			"min":[
				-0.00955626368522644,
				-5.960464477539063e-08,
				-0.14813017845153809
			],
			"type":"VEC3"
		},
		{
			"bufferView":32,
			"componentType":5126,
			"count":7252,
			"type":"VEC3"
		},
		{
			"bufferView":33,
			"componentType":5126,
			"count":7252,
			"max":[
				0.11154496669769287,
				2.9802322387695312e-08,
				0.0877799391746521
			],
			"min":[
				-0.07403430342674255,
				-2.9802322387695312e-08,
				-0.13622546195983887
			],
			"type":"VEC3"
		},
		{
			"bufferView":34,
			"componentType":5126,
			"count":7252,
			"type":"VEC3"
		},
		{
			"bufferView":35,
			"componentType":5126,
			"count":250,
			"max":[
				10.416666666666666
			],
			"min":[
				0.041666666666666664
			],
			"type":"SCALAR"
		},
		{
			"bufferView":36,
			"componentType":5126,
			"count":500,
			"type":"SCALAR"
		}
	],
	"bufferViews":[
		{
			"buffer":0,
			"byteLength":125232,
			"byteOffset":0,
			"target":34962
		},
		{
			"buffer":0,
			"byteLength":125232,
			"byteOffset":125232,
			"target":34962
		},
		{
			"buffer":0,
			"byteLength":31308,
			"byteOffset":250464,
			"target":34963
		},
		{
			"buffer":0,
			"byteLength":125232,
			"byteOffset":281772,
			"target":34962
		},
		{
			"buffer":0,
			"byteLength":125232,
			"byteOffset":407004,
			"target":34962
		},
		{
			"buffer":0,
			"byteLength":125232,
			"byteOffset":532236,
			"target":34962
		},
		{
			"buffer":0,
			"byteLength":125232,
			"byteOffset":657468,
			"target":34962
		},
		{
			"buffer":0,
			"byteLength":244320,
			"byteOffset":782700,
			"target":34962
		},
		{
			"buffer":0,
			"byteLength":244320,
			"byteOffset":1027020,
			"target":34962
		},
		{
			"buffer":0,
			"byteLength":61080,
			"byteOffset":1271340,
			"target":34963
		},
		{
			"buffer":0,
			"byteLength":244320,
			"byteOffset":1332420,
			"target":34962
		},
		{
			"buffer":0,
			"byteLength":244320,
			"byteOffset":1576740,
			"target":34962
		},
		{
			"buffer":0,
			"byteLength":244320,
			"byteOffset":1821060,
			"target":34962
		},
		{
			"buffer":0,
			"byteLength":244320,
			"byteOffset":2065380,
			"target":34962
		},
		{
			"buffer":0,
			"byteLength":153888,
			"byteOffset":2309700,
			"target":34962
		},
		{
			"buffer":0,
			"byteLength":153888,
			"byteOffset":2463588,
			"target":34962
		},
		{
			"buffer":0,
			"byteLength":38472,
			"byteOffset":2617476,
			"target":34963
		},
		{
			"buffer":0,
			"byteLength":153888,
			"byteOffset":2655948,
			"target":34962
		},
		{
			"buffer":0,
			"byteLength":153888,
			"byteOffset":2809836,
			"target":34962
		},
		{
			"buffer":0,
			"byteLength":153888,
			"byteOffset":2963724,
			"target":34962
		},
		{
			"buffer":0,
			"byteLength":153888,
			"byteOffset":3117612,
			"target":34962
		},
		{
			"buffer":0,
			"byteLength":60672,
			"byteOffset":3271500,
			"target":34962
		},
		{
			"buffer":0,
			"byteLength":60672,
			"byteOffset":3332172,
			"target":34962
		},
		{
			"buffer":0,
			"byteLength":15168,
			"byteOffset":3392844,
			"target":34963
		},
		{
			"buffer":0,
			"byteLength":60672,
			"byteOffset":3408012,
			"target":34962
		},
		{
			"buffer":0,
			"byteLength":60672,
			"byteOffset":3468684,
			"target":34962
		},
		{
			"buffer":0,
			"byteLength":60672,
			"byteOffset":3529356,
			"target":34962
		},
		{
			"buffer":0,
			"byteLength":60672,
			"byteOffset":3590028,
			"target":34962
		},
		{
			"buffer":0,
			"byteLength":87024,
			"byteOffset":3650700,
			"target":34962
		},
		{
			"buffer":0,
			"byteLength":87024,
			"byteOffset":3737724,
			"target":34962
		},
		{
			"buffer":0,
			"byteLength":21756,
			"byteOffset":3824748,
			"target":34963
		},
		{
			"buffer":0,
			"byteLength":87024,
			"byteOffset":3846504,
			"target":34962
		},
		{
			"buffer":0,
			"byteLength":87024,
			"byteOffset":3933528,
			"target":34962
		},
		{
			"buffer":0,
			"byteLength":87024,
			"byteOffset":4020552,
			"target":34962
		},
		{
			"buffer":0,
			"byteLength":87024,
			"byteOffset":4107576,
			"target":34962
		},
		{
			"buffer":0,
			"byteLength":1000,
			"byteOffset":4194600
		},
		{
			"buffer":0,
			"byteLength":2000,
			"byteOffset":4195600
		}
	],
	"buffers":[
		{
			"byteLength":4197600,
			"uri":"heart.bin"
		}
	]
}
